<?xml version="1.0" encoding="UTF-8" standalone="no"?>
<svg width="151px" height="154px" viewBox="0 0 151 154" version="1.1" xmlns="http://www.w3.org/2000/svg" xmlns:xlink="http://www.w3.org/1999/xlink" xmlns:sketch="http://www.bohemiancoding.com/sketch/ns">
    <!-- Generator: Sketch 3.3.1 (12002) - http://www.bohemiancoding.com/sketch -->
    <title>tipper logo</title>
    <desc>Created with Sketch.</desc>
    <defs>
        <filter x="-50%" y="-50%" width="200%" height="200%" filterUnits="objectBoundingBox" id="filter-1">
            <feOffset dx="0" dy="1" in="SourceAlpha" result="shadowOffsetOuter1"></feOffset>
            <feGaussianBlur stdDeviation="1" in="shadowOffsetOuter1" result="shadowBlurOuter1"></feGaussianBlur>
            <feColorMatrix values="0 0 0 0 0   0 0 0 0 0   0 0 0 0 0  0 0 0 0.14 0" in="shadowBlurOuter1" type="matrix" result="shadowMatrixOuter1"></feColorMatrix>
            <feMerge>
                <feMergeNode in="shadowMatrixOuter1"></feMergeNode>
                <feMergeNode in="SourceGraphic"></feMergeNode>
            </feMerge>
        </filter>
        <filter x="-50%" y="-50%" width="200%" height="200%" filterUnits="objectBoundingBox" id="filter-2">
            <feOffset dx="0" dy="1" in="SourceAlpha" result="shadowOffsetOuter1"></feOffset>
            <feGaussianBlur stdDeviation="1" in="shadowOffsetOuter1" result="shadowBlurOuter1"></feGaussianBlur>
            <feColorMatrix values="0 0 0 0 0   0 0 0 0 0   0 0 0 0 0  0 0 0 0.14 0" in="shadowBlurOuter1" type="matrix" result="shadowMatrixOuter1"></feColorMatrix>
            <feMerge>
                <feMergeNode in="shadowMatrixOuter1"></feMergeNode>
                <feMergeNode in="SourceGraphic"></feMergeNode>
            </feMerge>
        </filter>
        <filter x="-50%" y="-50%" width="200%" height="200%" filterUnits="objectBoundingBox" id="filter-3">
            <feOffset dx="0" dy="1" in="SourceAlpha" result="shadowOffsetOuter1"></feOffset>
            <feGaussianBlur stdDeviation="1" in="shadowOffsetOuter1" result="shadowBlurOuter1"></feGaussianBlur>
            <feColorMatrix values="0 0 0 0 0   0 0 0 0 0   0 0 0 0 0  0 0 0 0.14 0" in="shadowBlurOuter1" type="matrix" result="shadowMatrixOuter1"></feColorMatrix>
            <feMerge>
                <feMergeNode in="shadowMatrixOuter1"></feMergeNode>
                <feMergeNode in="SourceGraphic"></feMergeNode>
            </feMerge>
        </filter>
    </defs>
    <g id="Page-1" stroke="none" stroke-width="1" fill="none" fill-rule="evenodd" sketch:type="MSPage">
        <g id="tipper-desktop-web" sketch:type="MSArtboardGroup" transform="translate(-250.000000, -71.000000)" fill="#FFFFFF">
            <g id="tipper-logo" sketch:type="MSLayerGroup" transform="translate(252.000000, 72.000000)">
                <path d="M1.76313672,95.4574587 C0.608876091,97.5399607 0,99.7052789 0,101.927851 L1.94612175e-29,120.414687 C2.92151772e-14,136.750684 32.8933653,149.993625 73.4693878,149.993625 C114.04541,149.993625 146.938776,136.750684 146.938776,120.414687 L146.938776,120.414678 L146.938776,101.927851 C146.938776,99.7052789 146.329899,97.5399607 145.175639,95.4574587 C144.090134,97.415913 142.522282,99.3011234 140.524893,101.091829 C141.119382,102.566994 141.428571,104.081373 141.428571,105.625219 C141.428571,120.940215 111.002209,133.355473 73.4693878,133.355473 C35.936567,133.355473 5.51020408,120.940215 5.51020408,105.625219 C5.51020408,104.081373 5.81939307,102.566994 6.41388262,101.091829 C4.41649318,99.3011234 2.84864187,97.415913 1.76313672,95.4574587 L1.76313672,95.4574587 Z" id="Oval-26" filter="url(#filter-1)" sketch:type="MSShapeGroup"></path>
                <path d="M1.76313835,59.2830049 C0.608876664,61.3655087 0,63.5308289 0,65.7534037 L0,84.2402307 C0,100.576227 32.8933653,113.819168 73.4693878,113.819168 C114.04541,113.819168 146.938776,100.576227 146.938776,84.2402307 L146.938776,84.2402215 L146.938776,65.7533946 C146.938776,63.5308221 146.329899,61.3655039 145.175639,59.2830019 C144.090134,61.2414562 142.522282,63.1266666 140.524893,64.9173726 C141.119382,66.3925372 141.428571,67.9069161 141.428571,69.4507618 C141.428571,84.7657583 111.002209,97.1810159 73.4693878,97.1810159 C35.936567,97.1810159 5.51020408,84.7657583 5.51020408,69.4507618 C5.51020408,67.9069161 5.81939307,66.3925372 6.41388262,64.9173726 C4.41649417,63.1266675 2.84864343,61.2414581 1.76313835,59.2830049 L1.76313835,59.2830049 Z" id="Oval-26" filter="url(#filter-2)" sketch:type="MSShapeGroup"></path>
                <path d="M146.938776,48.0657739 C146.938776,64.4017701 114.04541,77.6447116 73.4693878,77.6447116 C32.8933653,77.6447116 0,64.4017701 0,48.0657739 L0,29.5789469 C0,13.2429415 32.8933653,0 73.4693878,0 C114.04541,0 146.938776,13.2429415 146.938776,29.5789378 L146.938776,48.0657739 Z M73.4693878,61.0065591 C111.002209,61.0065591 141.428571,48.5913014 141.428571,33.276305 C141.428571,17.9613085 111.002209,5.54605083 73.4693878,5.54605083 C35.936567,5.54605083 5.51020408,17.9613085 5.51020408,33.276305 C5.51020408,48.5913014 35.936567,61.0065591 73.4693878,61.0065591 Z" id="Oval-26" filter="url(#filter-3)" sketch:type="MSShapeGroup"></path>
            </g>
        </g>
    </g>
</svg>